<?xml version="1.0" encoding="utf-8"?>
<!-- Generator: Adobe Illustrator 25.4.1, SVG Export Plug-In . SVG Version: 6.00 Build 0)  -->
<svg version="1.1" id="Layer_1" xmlns="http://www.w3.org/2000/svg" xmlns:xlink="http://www.w3.org/1999/xlink" x="0px" y="0px"
	 viewBox="0 0 947.5 947.5" style="enable-background:new 0 0 947.5 947.5;" xml:space="preserve">
<style type="text/css">
	.st0{display:none;fill:#9B9B9B;}
	.st1{fill:#FFFFFF;}
	.st2{stroke:#000000;stroke-width:8;stroke-miterlimit:10;}
	.st3{display:none;fill:#FFFFFF;}
</style>
<rect class="st0" width="946.5" height="946.5"/>
<g>
	<rect x="156.5" y="117" class="st1" width="634.8" height="767"/>
	<g>
		<path d="M160.7,921.9c-20.8,0-36.5-14.4-38.3-35c-0.6-6.5-0.8-12.5-0.8-18.2c0.1-246.4,0.1-496.8,0.1-739v-1.6c0-3.5,0-7.2,0.5-11
			c2.9-21.5,16.7-34.2,37.9-34.8c12.4-0.3,25.6-0.5,41.6-0.5c10.7,0,21.6,0.1,32.2,0.1c10.7,0.1,21.8,0.1,32.8,0.1h13l-5.3,12
			c-1.9,4.4-3.8,8.8-5.7,13.2c-3.7,8.5-7.1,16.5-10.7,24.7c-3.5,7.9-10.1,12.1-18.9,12.1c-0.3,0-0.7,0-1,0
			c-5.9-0.2-12.2-0.2-19.9-0.2c-5.4,0-10.7,0-16.1,0.1c-4.8,0-9.5,0.1-14.3,0.1v365.1c0,113.6,0,231.1,0.1,346.7
			c38,0.1,78.2,0.1,122.7,0.1c66.1,0,133.2-0.1,198.1-0.2c64.9-0.1,132-0.2,198.1-0.2c17.3,0,34.5,0,51.8,0V143.7
			c-5.8,0-11.6,0-17.3,0.1c-6.8,0-13.5,0.1-20.3,0.1c-3.4,0-6.8,0-10.1,0c-4.5,0-10.6-2.7-13-7.7c-3.9-8.3-7.8-16.8-11.5-25.1
			c-1.6-3.6-3.2-7.2-4.9-10.8c-1.1-2.5-3.6-8.2-0.3-13.2c3.3-5.1,9.3-5.1,11.9-5.1c6.3,0,31.5,0,37.8,0c16.8,0,36.7,0,56.7,0.2
			c17,0.1,32.9,12.8,37,29.5v0.1c0.9,3.9,1,7.7,1,11.3c0,250.8-0.1,505.8-0.2,752.4v7.5c0,22.2-16.8,38.9-39,38.9
			c-104.3,0-208.6,0-312.9,0C369.4,921.8,265,921.9,160.7,921.9z"/>
		<path class="st1" d="M201.7,90.3c21.5,0,43.1,0.3,65,0.3c-5.6,12.9-10.9,25.4-16.4,37.8c-2.1,4.7-5.4,7-11.1,7c-0.2,0-0.5,0-0.7,0
			c-6.7-0.2-13.5-0.3-20.2-0.3c-10.8,0-21.5,0.2-32.3,0.2c-6.6,0-6.6,0-6.6,6.6c0,122.3,0,244.6,0,367c0,116,0,232,0.1,348
			c0,2,0,3.9,0,7.2c43.7,0.1,87.4,0.2,131.1,0.2c132.1,0,264-0.4,396.1-0.4c20.2,0,40.3,0,60.5,0c0-243.3,0-485.6,0-728.5
			c-1.9-0.1-3.8-0.2-5.7-0.2c-13.4,0-26.9,0.1-40.4,0.1c-3.4,0-6.7,0-10.1,0c-1.8,0-4.6-1.3-5.3-2.8c-5.6-11.8-10.9-23.9-16.3-35.8
			c-2.2-5-1.6-6.3,3.9-6.3c12.6,0,25.2,0,37.8,0c18.9,0,37.8,0,56.7,0.2c13.2,0.1,25.7,10.4,28.8,23c0.7,3,0.8,6.3,0.8,9.4
			c0,253.3-0.1,506.6-0.2,759.9c0,17.7-12.9,30.4-30.5,30.4c-208.6,0-417.3,0.1-625.9,0.1c-16.3,0-28.4-11-29.8-27.2
			c-0.5-5.8-0.8-11.6-0.8-17.5c0.1-246.4,0.1-492.7,0.1-739c0-3.8-0.1-7.7,0.4-11.5c2.2-16.6,11.8-26.9,29.7-27.4
			C174.1,90.4,187.9,90.3,201.7,90.3 M201.7,73.3L201.7,73.3c-16.1,0-29.4,0.1-41.8,0.5c-25.5,0.7-42.7,16.5-46.1,42.2
			c-0.6,4.4-0.6,8.5-0.6,12.2c0,0.5,0,1,0,1.6c0,242.2,0,492.6-0.1,739c0,6,0.3,12.2,0.9,19c1,12.1,6.3,23,14.8,30.8
			c8.5,7.7,19.8,12,31.9,12c104.3,0,210.4,0,313-0.1c102.6,0,208.6,0,312.9,0c27.1,0,47.5-20.4,47.5-47.4
			c0.1-249.1,0.2-506.6,0.2-759.9c0-3.9-0.1-8.6-1.2-13.3v-0.1v-0.1c-5-20.3-24.4-35.8-45.2-35.9c-20-0.2-40-0.2-56.8-0.2
			c-6.3,0-12.6,0-18.9,0c-6.3,0-12.6,0-18.9,0c-2.8,0-5.1,0.2-7.2,0.7c-6.4,1.5-10,5.3-11.9,8.2c-5.8,8.9-1.8,18.2-0.4,21.2v0.1v0.1
			c1.6,3.6,3.3,7.2,4.9,10.8c3.7,8.3,7.6,16.9,11.5,25.2c4.1,8.6,13.5,12.5,20.6,12.5c3.4,0,6.8,0,10.2,0c6.8,0,13.7,0,20.3-0.1
			c2.9,0,5.8,0,8.8,0V847c-14.5,0-29,0-43.5,0c-66,0-133.1,0.1-198,0.2c-64.9,0.1-132,0.2-198.1,0.2c-41.1,0-78.6,0-114.1-0.1
			c-0.1-112.9-0.1-227.4-0.1-338.2V152.2c2,0,3.9,0,5.9,0c5.3,0,10.7-0.1,16-0.1c7.6,0,13.8,0.1,19.7,0.2c0.4,0,0.8,0,1.3,0
			c12.2,0,21.7-6.1,26.6-17l0,0l0,0c3.6-8.2,7.1-16.3,10.8-24.8c1.9-4.3,3.8-8.7,5.7-13.2l10.3-23.8h-25.9c-11,0-22-0.1-32.7-0.1
			C223.3,73.4,212.4,73.3,201.7,73.3L201.7,73.3z"/>
	</g>
	<g>
		<path class="st2" d="M265,180c-6.6,0-13.4,0-17.2-5.5c-3.7-5.4-1.5-11.6,0.8-17.5v-0.1c0.2-0.6,0.5-1.6,1-2.6
			c2.8-6,5.7-12.1,8.5-18.1c7.7-16.5,15.7-33.5,23.3-50.3C287.7,72,298.9,65,314.6,65c0.3,0,0.6,0,0.9,0c9.6,0.2,19.8,0.2,32,0.2
			c9.5,0,19.2,0,28.6-0.1h10.2c4,0,7.1-0.3,9.8-1c7-1.8,10.9-7.6,10.2-14.9c-0.6-6.1,1.8-12.7,6.7-18.2c5.1-5.7,11.8-9,18.3-9.1
			c26.1-0.1,52.5-0.1,78.1-0.1c4.3,0,8.3,0,12.6,0.1c15.9,0,26.8,10,28.4,26c1.3,12.7,6.7,17.5,19.9,17.5c0.3,0,0.6,0,0.8,0
			c11.8-0.2,23.9-0.2,34.2-0.2h11.2c7.2,0,14.9,0,22.7-0.1h0.4c13.7,0,24.7,6.3,31.8,18.3c3.3,5.4,5.7,11.1,8.1,16.7
			c0.8,1.9,1.7,3.8,2.5,5.8c4.1,9.1,8.2,18.2,12.3,27.3s8.1,18.2,12.2,27.3c2.2,4.9,2.3,9.2,0.2,12.7s-5.7,5.5-10.7,5.9h-0.1
			c-1.4,0.1-2.7,0.2-4.1,0.4c-3,0.3-6.1,0.6-9.4,0.6L265,180L265,180z M478.1,49.6c-3.3,0-5.8,2.4-5.8,5.5c0,1.5,0.6,3,1.6,4.1
			c1.2,1.2,2.7,1.8,4.5,1.8c3.3,0,6.1-2.5,6.1-5.5c0-1.5-0.6-2.9-1.7-4C481.6,50.3,480,49.6,478.1,49.6L478.1,49.6z"/>
		<path class="st1" d="M509.5,30.3c4.2,0,8.3,0,12.5,0.1c11.7,0,18.9,6.6,20.1,18.4c1.8,17.3,11,25.1,28.3,25.1c0.3,0,0.7,0,1,0
			c11.3-0.2,22.7-0.2,34-0.2c3.8,0,7.6,0,11.3,0c7.6,0,15.1,0,22.7-0.1c0.1,0,0.2,0,0.3,0c10.9,0,19.1,5.1,24.5,14.1
			c4.1,6.8,6.9,14.3,10.2,21.6c8.2,18.2,16.3,36.4,24.5,54.6c1.9,4.2,1.1,6.3-3.5,6.7c-4.3,0.3-8.6,0.9-12.9,0.9c-69,0-138,0-207,0
			c-70.2,0-140.3,0-210.5,0c-11.9,0-12.5-0.9-8.4-11.7c0.2-0.6,0.4-1.3,0.7-1.9c10.7-22.9,21.5-45.6,31.9-68.6
			c5.1-11.3,13.5-15.8,25.4-15.8c0.3,0,0.5,0,0.8,0c10.7,0.2,21.5,0.2,32.2,0.2c12.9,0,25.9-0.1,38.8-0.1c4,0,8-0.3,11.9-1.3
			c11.1-2.8,17.7-12.6,16.5-24c-0.8-8,8.2-17.8,16.7-17.9C457.5,30.3,483.5,30.3,509.5,30.3 M478.4,69.5c8,0,14.5-6.2,14.6-13.9
			c0.1-7.8-6.5-14.4-14.7-14.5c-0.1,0-0.1,0-0.2,0c-7.9,0-14.2,6.1-14.3,13.9C463.7,63,470.2,69.5,478.4,69.5 M509.5,13.3
			c-25.6,0-52,0-78.1,0.1h-0.1h-0.1c-8.9,0.1-17.9,4.5-24.6,11.9c-6.5,7.2-9.7,16.2-8.8,24.6l0,0l0,0c0.3,3.1-0.9,5-3.8,5.7l0,0l0,0
			c-2,0.5-4.5,0.8-7.7,0.8l0,0l0,0c-3.4,0-6.8,0-10.2,0c-9.4,0-19.1,0.1-28.6,0.1c-12.2,0-22.3-0.1-31.9-0.2c-0.4,0-0.7,0-1.1,0
			c-24.2,0-35.6,14-40.9,25.8c-7.6,16.8-15.6,33.8-23.3,50.3c-2.8,6-5.6,12-8.4,18c-0.7,1.5-1.1,2.8-1.4,3.6
			c-2.5,6.5-6,16.2,0.2,25.2c6.3,9.2,16.7,9.2,24.2,9.2h210.5h207c3.7,0,7.1-0.3,10.2-0.6c1.4-0.1,2.7-0.2,3.9-0.3h0.1h0.1
			c10.4-0.9,15.3-6.7,17.3-10.1c2.4-4.2,4.5-11.1,0.2-20.5c-4.1-9.1-8.2-18.3-12.2-27.2c-4-9-8.2-18.2-12.3-27.3
			c-0.8-1.8-1.6-3.7-2.5-5.6c-2.5-5.8-5.1-11.8-8.7-17.7c-8.6-14.4-22.5-22.4-39.1-22.4h-0.5c-7.7,0.1-15.4,0.1-22.5,0.1h-5.7H605
			c-10.3,0-22.4,0-34.3,0.2c-0.2,0-0.5,0-0.7,0c-6,0-8.1-1.3-8.8-1.8c-1.3-1.1-2.2-4-2.6-8c-2.1-20.4-16.5-33.6-36.8-33.7
			C517.9,13.3,513.6,13.3,509.5,13.3L509.5,13.3z"/>
	</g>
</g>
<g>
	<polygon points="534.6,921.8 534.6,771.2 384,771.2 384,630.3 534.6,630.3 534.6,479.7 675.6,479.7 675.6,630.3 826.1,630.3 
		826.1,771.2 675.6,771.2 675.6,921.8 	"/>
	<path class="st1" d="M667.1,488.2v150.6h150.6v123.9H667.1v150.6h-124V762.7H392.5V638.8h150.6V488.2H667.1 M684.1,471.2h-17h-124
		h-17v17v133.6H392.5h-17v17v123.9v17h17h133.6v133.6v17h17H667h17v-17V779.7h133.6h17v-17V638.8v-17h-17H684.1V488.2V471.2
		L684.1,471.2z"/>
</g>
<path class="st3" d="M667.1,490.2v150.6h133.6v123.9H667.1v150.6h-124V764.7H392.5V640.8h150.6V490.2H667.1 M684.1,473.2h-17h-124
	h-17v17v133.6H392.5h-17v17v123.9v17h17h133.6v133.6v17h17H667h17v-17V781.7h116.6h17v-17V640.8v-17h-17H684.1V490.2V473.2
	L684.1,473.2z"/>
</svg>
